<?xml version="1.0" encoding="UTF-8"?><svg id="uuid-71108ae7-ff26-47a4-bf20-598d9a94efc4" xmlns="http://www.w3.org/2000/svg" xmlns:xlink="http://www.w3.org/1999/xlink" viewBox="0 0 249.88 102.21"><defs><radialGradient id="uuid-b7636f79-b74c-4dfd-8e6f-872c4bf86f97" cx="-366.41" cy="37.85" fx="-366.41" fy="37.85" r="22.41" gradientTransform="translate(-288.49) rotate(-180) scale(1.14 -1)" gradientUnits="userSpaceOnUse"><stop offset="0" stop-color="#fff"/><stop offset=".28" stop-color="#d6d6d6"/><stop offset=".56" stop-color="#b4b4b4"/><stop offset=".8" stop-color="#a0a0a0"/><stop offset=".95" stop-color="#999"/></radialGradient><radialGradient id="uuid-5c571902-bdf3-48b0-a60c-0ff12e5300d4" cx="123.88" cy="35.62" fx="123.88" fy="35.62" r="18.51" gradientUnits="userSpaceOnUse"><stop offset=".06" stop-color="#fff"/><stop offset=".11" stop-color="#fcf7f9"/><stop offset=".2" stop-color="#f4e3ea"/><stop offset=".3" stop-color="#e8c2d0"/><stop offset=".42" stop-color="#d693ad"/><stop offset=".54" stop-color="#c05880"/><stop offset=".68" stop-color="#a5114b"/><stop offset=".71" stop-color="#9f003e"/></radialGradient><filter id="uuid-1c5a39bb-56c7-4aa9-8169-82fc16270eb1" filterUnits="userSpaceOnUse"><feOffset dx="0" dy="18"/><feGaussianBlur result="uuid-0f8bdf7d-a078-4540-99d6-064d9ac7561a" stdDeviation="5"/><feFlood flood-color="#000" flood-opacity=".75"/><feComposite in2="uuid-0f8bdf7d-a078-4540-99d6-064d9ac7561a" operator="in"/><feComposite in="SourceGraphic"/></filter><radialGradient id="uuid-1760e055-76b9-4360-ba39-f99d3e46eda9" cx="119.2" cy="31.3" fx="119.2" fy="31.3" r="22.41" gradientUnits="userSpaceOnUse"><stop offset="0" stop-color="#fff"/><stop offset=".28" stop-color="#d6d6d6"/><stop offset=".56" stop-color="#b4b4b4"/><stop offset=".8" stop-color="#a0a0a0"/><stop offset=".95" stop-color="#999"/></radialGradient></defs><rect width="249.88" height="102.21" style="fill:none;"/><text transform="translate(17.74 86.21)" style="font-family:EurostileRegular, Eurostile; font-size:26px; letter-spacing:0em;"><tspan x="0" y="0">MJP SYSTEMS, LLC</tspan></text><g><g style="opacity:.58;"><path d="M121.52,63.95c26.83-2.05,27.89-10.89,26.96-14.98-2.95-12.97-40.7-37.21-40.7-37.21,0,0,49.32,48.43,13.74,52.19Z" style="fill:url(#uuid-b7636f79-b74c-4dfd-8e6f-872c4bf86f97);"/></g><path d="M142.89,35.62c0,9.94-8.51,17.99-19.01,17.99s-19.01-8.05-19.01-17.99,8.51-17.99,19.01-17.99,19.01,8.05,19.01,17.99Z" style="fill:url(#uuid-5c571902-bdf3-48b0-a60c-0ff12e5300d4); filter:url(#uuid-1c5a39bb-56c7-4aa9-8169-82fc16270eb1);"/><g style="opacity:.81;"><path d="M125.11,57.4c-23.59-2.05-24.52-10.89-23.71-14.98,2.59-12.97,35.79-37.21,35.79-37.21,0,0-43.36,48.43-12.08,52.19Z" style="fill:url(#uuid-1760e055-76b9-4360-ba39-f99d3e46eda9);"/></g></g></svg>